<?xml version="1.0" encoding="UTF-8" standalone="no"?>
<!-- Created with Inkscape (http://www.inkscape.org/) -->

<svg
   width="256"
   height="256"
   viewBox="0 0 256 256"
   inkscape:document-units="px"
   version="1.1"
   id="svg5"
   xml:space="preserve"
   inkscape:version="1.2.2 (732a01da63, 2022-12-09)"
   sodipodi:docname="logo.svg"
   xmlns:inkscape="http://www.inkscape.org/namespaces/inkscape"
   xmlns:sodipodi="http://sodipodi.sourceforge.net/DTD/sodipodi-0.dtd"
   xmlns="http://www.w3.org/2000/svg"
   xmlns:svg="http://www.w3.org/2000/svg"><sodipodi:namedview
     id="namedview7"
     pagecolor="#ffffff"
     bordercolor="#666666"
     borderopacity="1.0"
     inkscape:showpageshadow="2"
     inkscape:pageopacity="0.0"
     inkscape:pagecheckerboard="0"
     inkscape:deskcolor="#d1d1d1"
     showgrid="false"
     inkscape:zoom="1.2642212"
     inkscape:cx="374.53888"
     inkscape:cy="-9.4920096"
     inkscape:window-width="1920"
     inkscape:window-height="1017"
     inkscape:window-x="-8"
     inkscape:window-y="239"
     inkscape:window-maximized="1"
     inkscape:current-layer="layer1" /><defs
     id="defs2"><filter
       style="color-interpolation-filters:sRGB;"
       inkscape:label="Drop Shadow"
       id="filter4587"
       x="-0.12624825"
       y="-0.083044077"
       width="1.3050999"
       height="1.2006899"><feFlood
         flood-opacity="0.498039"
         flood-color="rgb(0,0,0)"
         result="flood"
         id="feFlood4577" /><feComposite
         in="flood"
         in2="SourceGraphic"
         operator="in"
         result="composite1"
         id="feComposite4579" /><feGaussianBlur
         in="composite1"
         stdDeviation="5"
         result="blur"
         id="feGaussianBlur4581" /><feOffset
         dx="5"
         dy="5"
         result="offset"
         id="feOffset4583" /><feComposite
         in="SourceGraphic"
         in2="offset"
         operator="over"
         result="composite2"
         id="feComposite4585" /></filter><filter
       style="color-interpolation-filters:sRGB;"
       inkscape:label="Drop Shadow"
       id="filter4599"
       x="-0.10776417"
       y="-0.081669557"
       width="1.2604301"
       height="1.1973681"><feFlood
         flood-opacity="0.498039"
         flood-color="rgb(0,0,0)"
         result="flood"
         id="feFlood4589" /><feComposite
         in="flood"
         in2="SourceGraphic"
         operator="in"
         result="composite1"
         id="feComposite4591" /><feGaussianBlur
         in="composite1"
         stdDeviation="5"
         result="blur"
         id="feGaussianBlur4593" /><feOffset
         dx="5"
         dy="5"
         result="offset"
         id="feOffset4595" /><feComposite
         in="SourceGraphic"
         in2="offset"
         operator="over"
         result="composite2"
         id="feComposite4597" /></filter><filter
       style="color-interpolation-filters:sRGB;"
       inkscape:label="Drop Shadow"
       id="filter5832"
       x="-0.3029958"
       y="-0.19930578"
       width="1.6375537"
       height="1.4401336"><feFlood
         flood-opacity="0.698039"
         flood-color="rgb(0,0,0)"
         result="flood"
         id="feFlood5822" /><feComposite
         in="flood"
         in2="SourceGraphic"
         operator="in"
         result="composite1"
         id="feComposite5824" /><feGaussianBlur
         in="composite1"
         stdDeviation="12"
         result="blur"
         id="feGaussianBlur5826" /><feOffset
         dx="3"
         dy="6"
         result="offset"
         id="feOffset5828" /><feComposite
         in="SourceGraphic"
         in2="offset"
         operator="over"
         result="composite2"
         id="feComposite5830" /></filter><filter
       style="color-interpolation-filters:sRGB;"
       inkscape:label="Drop Shadow"
       id="filter5844"
       x="-0.25863401"
       y="-0.19600694"
       width="1.5442091"
       height="1.4328486"><feFlood
         flood-opacity="0.698039"
         flood-color="rgb(0,0,0)"
         result="flood"
         id="feFlood5834" /><feComposite
         in="flood"
         in2="SourceGraphic"
         operator="in"
         result="composite1"
         id="feComposite5836" /><feGaussianBlur
         in="composite1"
         stdDeviation="12"
         result="blur"
         id="feGaussianBlur5838" /><feOffset
         dx="3"
         dy="6"
         result="offset"
         id="feOffset5840" /><feComposite
         in="SourceGraphic"
         in2="offset"
         operator="over"
         result="composite2"
         id="feComposite5842" /></filter></defs><g
     inkscape:label="Layer 1"
     inkscape:groupmode="layer"
     id="layer1"><rect
       style="fill:#353535;fill-opacity:1;stroke:none;stroke-width:6;paint-order:markers fill stroke"
       id="rect5344"
       width="256"
       height="256"
       x="0"
       y="0" /><path
       d="m 29.92665,191.87422 q -6.282677,0 -9.930684,-3.44534 -3.445339,-3.64801 -3.445339,-10.33602 V 61.154 q 0,-6.688011 3.445339,-10.13335 3.648007,-3.648006 10.336018,-3.648006 h 70.730786 q 5.26934,0 7.90401,2.634671 2.63467,2.634671 2.63467,7.498679 0,5.066675 -2.63467,7.904013 -2.63467,2.634671 -7.90401,2.634671 H 42.492004 v 40.330732 h 54.314758 q 5.066678,0 7.701348,2.63467 2.83734,2.63468 2.83734,7.49868 0,5.06668 -2.83734,7.90402 -2.63467,2.63467 -7.701348,2.63467 H 42.492004 v 49.04541 q 0,13.78136 -12.565354,13.78136 z"
       style="font-weight:bold;font-size:202.667px;line-height:1.15;font-family:Nunito;-inkscape-font-specification:'Nunito Bold';text-align:center;letter-spacing:0px;word-spacing:0px;text-anchor:middle;fill:#8308e0;fill-opacity:1;filter:url(#filter5832)"
       id="path392" /><path
       d="m 175.64419,192.27955 q -8.91735,0 -17.83469,-1.41867 -8.91735,-1.216 -16.82137,-3.85067 -7.90401,-2.83734 -14.18669,-6.89068 -3.648,-2.432 -5.06667,-5.87734 -1.41867,-3.44534 -1.01334,-6.68801 0.608,-3.44534 2.63467,-5.87734 2.22934,-2.63468 5.47201,-3.24268 3.24268,-0.608 7.09335,1.82401 8.91735,5.26934 18.84803,7.70134 9.93068,2.43201 20.8747,2.43201 16.0107,0 23.30671,-5.26935 7.29601,-5.472 7.29601,-13.98402 0,-7.09334 -5.26934,-11.14668 -5.06668,-4.05334 -17.63203,-6.68802 l -22.29337,-4.66134 q -19.25337,-4.05334 -28.77872,-13.57869 -9.32268,-9.72801 -9.32268,-25.536039 0,-9.930683 4.05334,-18.037363 4.05334,-8.106681 11.34935,-13.984024 7.49868,-5.877343 17.63203,-8.917348 10.33602,-3.242672 22.69871,-3.242672 12.16002,0 23.10404,3.040005 10.94401,3.040005 19.6587,8.917348 3.24267,2.229337 4.256,5.472009 1.216,3.242672 0.608,6.485344 -0.608,3.040006 -2.83733,5.269343 -2.22934,2.229337 -5.67468,2.634671 -3.24267,0.405334 -7.49868,-2.02667 -7.49868,-4.256007 -15.20003,-6.080011 -7.70134,-1.824003 -16.61869,-1.824003 -9.32268,0 -16.01069,2.634671 -6.68801,2.634672 -10.33602,7.49868 -3.44534,4.661341 -3.44534,11.146685 0,7.296012 4.86401,11.754684 4.86401,4.25601 16.61869,6.68801 l 22.09071,4.66135 q 20.06403,4.256 29.79205,13.37602 9.93068,9.12001 9.93068,24.32004 0,9.72801 -4.05334,17.63203 -3.85067,7.90401 -11.34935,13.57869 -7.29601,5.67467 -17.63203,8.71468 -10.33602,3.04 -23.30671,3.04 z"
       style="font-weight:bold;font-size:202.667px;line-height:1.15;font-family:Nunito;-inkscape-font-specification:'Nunito Bold';text-align:center;letter-spacing:0px;word-spacing:0px;text-anchor:middle;fill:#20d8e0;fill-opacity:1;filter:url(#filter5844)"
       id="path394" /></g></svg>
